<svg width="57" height="61" viewBox="0 0 57 61" fill="none" xmlns="http://www.w3.org/2000/svg">
<path d="M33.4342 31.114H4.627V4.00855H32.9116C53.51 4.00855 52.3756 31.114 33.4342 31.114ZM40.2408 34.2509C58.8317 29.7206 57.0025 0.178158 35.1805 0H0V61H4.627V35.0271H24.5307C28.2145 35.1035 31.8982 35.1798 35.5756 35.2562C36.589 35.5807 44.9571 38.4185 48.0545 47.1164C50.3935 53.6955 48.2775 59.4729 47.6784 60.93C50.7504 60.9491 53.7713 60.9109 56.8432 60.93C56.1804 57.0678 54.4851 50.3296 49.5777 43.5469C46.3974 39.1502 42.9049 36.1661 40.2472 34.2509" fill="#EDC188"/>
</svg>
