<svg width="20" height="19" viewBox="0 0 20 19" fill="none" xmlns="http://www.w3.org/2000/svg">
<path d="M2.58228 9.38053C2.58228 11.6523 3.23425 13.4135 4.53818 14.6706C5.84212 15.9278 7.66382 16.5595 10.0032 16.5595C12.3426 16.5595 14.1451 15.9277 15.4554 14.6579C16.7658 13.388 17.4241 11.6267 17.4241 9.38053C17.4241 7.13431 16.7722 5.34754 15.4682 4.09042C14.1643 2.8333 12.3426 2.20156 10.0032 2.20156C7.66382 2.20156 5.8613 2.8333 4.55098 4.10318C3.24065 5.37306 2.58228 7.13431 2.58228 9.38053ZM0 9.38053C0 7.4789 0.41547 5.82614 1.24002 4.41587C2.06456 3.0056 3.22788 1.9144 4.72357 1.14865C6.21926 0.38289 7.97702 0 10.0032 0C12.0294 0 13.8064 0.38289 15.302 1.14865C16.7977 1.9144 17.9546 2.99921 18.7728 4.4031C19.591 5.80699 20 7.46614 20 9.38053C20 11.2949 19.5845 12.9349 18.76 14.3324C17.9291 15.7363 16.7722 16.8211 15.2765 17.5997C13.7808 18.3782 12.023 18.761 10.0032 18.761C7.98341 18.761 6.21925 18.3782 4.71077 17.6124C3.20869 16.8467 2.04537 15.7555 1.22722 14.3452C0.409066 12.9349 0 11.2822 0 9.38053Z" fill="#EDC188"/>
</svg>
