<svg width="32" height="31" viewBox="0 0 32 31" fill="none" xmlns="http://www.w3.org/2000/svg">
<g filter="url(#filter0_d_1_950)">
<path d="M8.60334 15.3823C8.60334 17.6476 9.25346 19.4038 10.5537 20.6574C11.8539 21.9109 13.6705 22.5409 16.0032 22.5409C18.336 22.5409 20.1333 21.9109 21.4399 20.6446C22.7466 19.3784 23.4031 17.6221 23.4031 15.3823C23.4031 13.1424 22.7529 11.3607 21.4527 10.1072C20.1525 8.85365 18.336 8.2237 16.0032 8.2237C13.6705 8.2237 11.8731 8.85364 10.5664 10.1199C9.25984 11.3862 8.60334 13.1424 8.60334 15.3823ZM6.02839 15.3823C6.02839 13.4861 6.44268 11.838 7.26489 10.4317C8.08709 9.02546 9.24711 7.93736 10.7386 7.17378C12.23 6.41019 13.9828 6.02839 16.0032 6.02839C18.0237 6.02839 19.7955 6.41019 21.287 7.17378C22.7784 7.93736 23.9321 9.01909 24.7479 10.419C25.5637 11.8189 25.9716 13.4733 25.9716 15.3823C25.9716 17.2912 25.5573 18.9266 24.7351 20.3201C23.9066 21.72 22.7529 22.8018 21.2615 23.5781C19.7701 24.3544 18.0173 24.7362 16.0032 24.7362C13.9891 24.7362 12.23 24.3544 10.7258 23.5908C9.22797 22.8272 8.06796 21.7391 7.25213 20.3329C6.43629 18.9266 6.02839 17.2785 6.02839 15.3823Z" fill="#EDC188"/>
</g>
<defs>
<filter id="filter0_d_1_950" x="0" y="0" width="32" height="30.7646" filterUnits="userSpaceOnUse" color-interpolation-filters="sRGB">
<feFlood flood-opacity="0" result="BackgroundImageFix"/>
<feColorMatrix in="SourceAlpha" type="matrix" values="0 0 0 0 0 0 0 0 0 0 0 0 0 0 0 0 0 0 127 0" result="hardAlpha"/>
<feOffset/>
<feGaussianBlur stdDeviation="3"/>
<feColorMatrix type="matrix" values="0 0 0 0 0.929 0 0 0 0 0.757 0 0 0 0 0.533 0 0 0 0.25 0"/>
<feBlend mode="normal" in2="BackgroundImageFix" result="effect1_dropShadow_1_950"/>
<feBlend mode="normal" in="SourceGraphic" in2="effect1_dropShadow_1_950" result="shape"/>
</filter>
</defs>
</svg>
