<svg width="77" height="81" viewBox="0 0 77 81" fill="none" xmlns="http://www.w3.org/2000/svg">
<g filter="url(#filter0_d_1_956)">
<path d="M43.4308 41.1133H14.6568V14.039H42.9088C63.4835 14.039 62.3504 41.1133 43.4308 41.1133ZM50.2296 44.2465C68.7991 39.7215 66.972 10.2131 45.1751 10.0351H10.0351V70.9649H14.6568V45.0219H34.5376C38.2171 45.0982 41.8966 45.1744 45.5698 45.2507C46.5819 45.5748 54.9404 48.4094 58.0343 57.0973C60.3706 63.6688 58.2571 69.4396 57.6587 70.895C60.7271 70.914 63.7445 70.8759 66.8129 70.895C66.1508 67.0372 64.4575 60.3068 59.5557 53.5319C56.3791 49.1402 52.8906 46.1595 50.236 44.2465" fill="#EDC188"/>
</g>
<defs>
<filter id="filter0_d_1_956" x="0" y="0" width="76.848" height="81" filterUnits="userSpaceOnUse" color-interpolation-filters="sRGB">
<feFlood flood-opacity="0" result="BackgroundImageFix"/>
<feColorMatrix in="SourceAlpha" type="matrix" values="0 0 0 0 0 0 0 0 0 0 0 0 0 0 0 0 0 0 127 0" result="hardAlpha"/>
<feOffset/>
<feGaussianBlur stdDeviation="5"/>
<feColorMatrix type="matrix" values="0 0 0 0 0.929 0 0 0 0 0.757 0 0 0 0 0.533 0 0 0 0.25 0"/>
<feBlend mode="normal" in2="BackgroundImageFix" result="effect1_dropShadow_1_956"/>
<feBlend mode="normal" in="SourceGraphic" in2="effect1_dropShadow_1_956" result="shape"/>
</filter>
</defs>
</svg>
