<svg width="19" height="19" viewBox="0 0 19 19" fill="none" xmlns="http://www.w3.org/2000/svg">
<path d="M0 9.49677C0 7.59095 0.401195 5.92418 1.2036 4.50935C2.00601 3.08807 3.13843 1.98333 4.58794 1.18871C6.04392 0.394081 7.74581 0 9.68712 0C14.4433 0 17.3747 1.98334 18.4942 5.95647L16.0352 6.33763C15.511 4.88405 14.7539 3.83747 13.7639 3.1979C12.7738 2.55832 11.4149 2.23529 9.68712 2.23529C8.23113 2.23529 6.97575 2.53248 5.92097 3.12037C4.86619 3.71473 4.04439 4.55457 3.47494 5.63992C2.89902 6.73172 2.61428 8.01733 2.61428 9.50321C2.61428 10.9891 2.89902 12.3006 3.47494 13.3924C4.05086 14.4842 4.87269 15.3176 5.94688 15.899C7.02107 16.4804 8.29584 16.7711 9.76477 16.7711C11.6284 16.7711 13.078 16.4352 14.1198 15.7569C15.1616 15.0785 15.8475 14.0255 16.1905 12.5913H18.7789C18.423 14.6715 17.4783 16.2543 15.9382 17.3526C14.398 18.4509 12.3467 19 9.77124 19C7.77169 19 6.04392 18.6124 4.58146 17.8371C3.11901 17.0619 1.98659 15.9572 1.19713 14.5294C0.401188 13.1017 0.00647735 11.4284 0.00647735 9.50321" fill="#EDC188"/>
</svg>
