<svg width="31" height="31" viewBox="0 0 31 31" fill="none" xmlns="http://www.w3.org/2000/svg">
<g filter="url(#filter0_d_1_951)">
<path d="M6.07326 15.4968C6.07326 13.6057 6.47136 11.9518 7.26758 10.5478C8.0638 9.13752 9.18749 8.0413 10.6258 7.2528C12.0706 6.46431 13.7593 6.07326 15.6857 6.07326C20.4052 6.07326 23.314 8.04131 24.4248 11.9838L21.9848 12.362C21.4647 10.9196 20.7134 9.88114 19.731 9.2465C18.7485 8.61185 17.4001 8.29131 15.6857 8.29131C14.2409 8.29131 12.9952 8.58621 11.9486 9.16957C10.9019 9.75935 10.0865 10.5927 9.52141 11.6697C8.94993 12.7531 8.66739 14.0288 8.66739 15.5032C8.66739 16.9776 8.94993 18.279 9.52141 19.3624C10.0929 20.4457 10.9084 21.2727 11.9743 21.8497C13.0402 22.4266 14.3051 22.7151 15.7627 22.7151C17.612 22.7151 19.0504 22.3817 20.0842 21.7086C21.118 21.0355 21.7986 19.9906 22.1389 18.5675H24.7074C24.3542 20.6317 23.4167 22.2022 21.8885 23.292C20.3603 24.3818 18.3248 24.9267 15.7692 24.9267C13.785 24.9267 12.0706 24.5421 10.6194 23.7728C9.16822 23.0036 8.04453 21.9074 7.26116 20.4906C6.47136 19.0739 6.07969 17.4135 6.07969 15.5032" fill="#EDC188"/>
</g>
<defs>
<filter id="filter0_d_1_951" x="0" y="0" width="30.7806" height="31" filterUnits="userSpaceOnUse" color-interpolation-filters="sRGB">
<feFlood flood-opacity="0" result="BackgroundImageFix"/>
<feColorMatrix in="SourceAlpha" type="matrix" values="0 0 0 0 0 0 0 0 0 0 0 0 0 0 0 0 0 0 127 0" result="hardAlpha"/>
<feOffset/>
<feGaussianBlur stdDeviation="3"/>
<feColorMatrix type="matrix" values="0 0 0 0 0.929 0 0 0 0 0.757 0 0 0 0 0.533 0 0 0 0.25 0"/>
<feBlend mode="normal" in2="BackgroundImageFix" result="effect1_dropShadow_1_951"/>
<feBlend mode="normal" in="SourceGraphic" in2="effect1_dropShadow_1_951" result="shape"/>
</filter>
</defs>
</svg>
