<svg width="80" height="84" viewBox="0 0 80 84" fill="none" xmlns="http://www.w3.org/2000/svg">
<g filter="url(#filter0_d_1_964)">
<path d="M17.1274 27.787C17.1274 19.9293 24.4268 14.0613 39.1209 14.0613C52.8565 14.0613 61.2031 21.6593 63.2025 28.7375H67.8996C64.5101 15.7026 53.9037 10.0057 39.3874 10.0057C23.3922 10.0057 12.1765 15.9624 12.1765 27.787C12.1765 53.6858 65.0306 34.3457 65.0306 55.1496C65.0306 63.7804 56.4237 69.1351 41.9074 69.1351C25.8233 69.1351 16.607 61.0175 14.7853 53.426H10.0057C13.2238 66.2011 25.0425 73.1083 41.5646 73.1083C58.0866 73.1083 69.9942 67.2403 69.9942 55.1559C69.9942 28.8262 17.1401 49.288 17.1401 27.7933" fill="#EDC188"/>
</g>
<defs>
<filter id="filter0_d_1_964" x="0" y="0" width="80" height="83.114" filterUnits="userSpaceOnUse" color-interpolation-filters="sRGB">
<feFlood flood-opacity="0" result="BackgroundImageFix"/>
<feColorMatrix in="SourceAlpha" type="matrix" values="0 0 0 0 0 0 0 0 0 0 0 0 0 0 0 0 0 0 127 0" result="hardAlpha"/>
<feOffset/>
<feGaussianBlur stdDeviation="5"/>
<feColorMatrix type="matrix" values="0 0 0 0 0.929 0 0 0 0 0.757 0 0 0 0 0.533 0 0 0 0.25 0"/>
<feBlend mode="normal" in2="BackgroundImageFix" result="effect1_dropShadow_1_964"/>
<feBlend mode="normal" in="SourceGraphic" in2="effect1_dropShadow_1_964" result="shape"/>
</filter>
</defs>
</svg>
