<svg width="200" height="111" viewBox="0 0 200 111" fill="none" xmlns="http://www.w3.org/2000/svg">
<path d="M64.0061 103.675H43.42C7.09909 103.675 8.0071 57.2578 39.5911 54.6016C39.5847 55.0263 39.5847 55.4701 39.5847 55.9012C39.5847 78.4186 49.0586 94.362 64.0061 103.668M199.987 110.806C198.787 103.789 195.701 91.5727 186.799 79.2617C181.027 71.2804 174.683 65.8666 169.864 62.3927C203.607 54.1769 200.279 0.564902 160.682 0.235256H133.321C123.136 0.235256 112.347 0.159184 102.168 0.0640932C93.4438 -0.0119791 85.5002 -0.316268 76.9279 1.59822C69.2764 3.30351 62.1138 7.1515 56.2847 12.3751C50.4175 17.6241 45.9663 24.3248 43.3375 31.7355C42.8803 33.0161 39.4831 46.9817 40.0165 46.9944C39.5339 46.9817 39.0577 46.9753 38.5751 46.9563C36.7337 46.3731 21.5449 41.2192 15.9317 25.4405C11.69 13.4972 15.6015 2.89145 16.7 0.260613C11.1185 0.222577 5.57513 0.273292 0 0.241595C1.20011 7.2656 4.27974 19.6274 13.1822 31.932C18.9542 39.9133 25.2849 45.3271 30.1108 48.8011C-3.6194 57.0296 -0.30482 110.629 39.299 110.958H95.3297V106.229C90.8722 105.76 86.6876 104.898 82.7888 103.687C61.028 96.9295 48.4427 79.2807 48.4427 56.066C48.4427 55.5398 48.4427 55.02 48.4554 54.5002C48.4999 51.9708 48.6649 49.5364 48.9253 47.1909C50.608 32.5026 56.6149 21.5482 66.7365 14.6383C73.9816 9.6809 83.3539 6.79649 94.7392 6.11184C95.4249 6.06747 96.1361 6.02943 96.8409 6.01041C97.9585 5.97237 99.0888 5.95336 100.244 5.95336C101.229 5.95336 102.187 5.9597 103.134 5.99773C108.099 6.1372 112.62 6.65069 116.748 7.5382C119.478 8.11508 122.024 8.85678 124.418 9.74429C131.314 12.3117 135.797 16.0203 137.086 17.0916C146.179 24.7052 150.751 34.8608 148.141 46.8105C151.303 46.8295 154.466 46.8549 157.628 46.8739C158.485 46.8739 157.234 35.4694 156.993 34.2903C155.85 28.7243 153.589 23.2471 150.237 18.6384C145.9 12.6858 140.845 9.2942 137.746 7.54454H156.567C192.615 7.54454 191.98 53.283 161.069 56.5351H95.0566V58.6398C95.0566 63.4387 95.0693 68.2693 95.0693 73.0681C95.8313 72.5547 96.714 71.9778 97.6918 71.3629C98.3459 70.9571 99.0443 70.5451 99.8 70.1203C101.635 69.0617 103.724 67.9586 106.093 66.8809C111.528 64.3896 118.348 62.044 126.418 60.8522C126.787 60.7951 127.174 60.7381 127.549 60.6937C135.461 59.6477 142.547 59.99 148.401 60.8522C149.951 61.0868 151.424 61.353 152.789 61.6256C155.158 62.1328 157.228 62.6843 158.999 63.2104C165.146 65.7398 179.471 72.9097 184.056 85.7849C188.297 97.7156 184.449 108.195 183.363 110.825C188.939 110.863 194.418 110.806 200 110.838" fill="#EDC188"/>
</svg>
