<svg width="66" height="64" viewBox="0 0 66 64" fill="none" xmlns="http://www.w3.org/2000/svg">
<path d="M65.9871 29.9995H29.2361V39.1978C32.318 37.1102 38.5525 33.4681 47.3092 32.3119C51.2983 31.7852 54.7662 31.8173 57.7452 32.0871C59.7912 32.2734 61.3417 33.9948 61.3417 36.0439C61.3417 41.0221 61.9208 46.0644 59.2507 50.5223C57.224 53.9074 53.8976 56.2648 50.2881 57.7422C45.9774 59.5022 41.287 60.0996 36.6609 60.1831C16.9214 60.5364 4.93487 48.9293 4.93487 32.0421C4.93487 13.9281 14.8947 4.16456 33.7528 4.16456C47.766 4.16456 61.7536 9.46385 60.4925 21.0517H65.9421C66.0643 17.9363 64.6682 13.1894 62.8602 10.7742C60.9364 8.21129 58.4722 6.21361 55.6477 4.71053C46.0031 -0.428197 34.8787 -0.0235185 33.7528 0.0278688C26.2507 0.374733 15.4673 0.895035 7.61784 9.27758C2.60575 14.6283 0 22.24 0 31.9522C0 53.233 15.2422 63.9601 34.7179 63.9601C47.9333 63.9601 57.1018 60.1767 61.3289 52.6163V63.8766H66V30.1023H65.9678C65.9678 30.0637 65.9678 30.0316 65.9678 29.9931" fill="#EDC188"/>
</svg>
