<svg width="60" height="64" viewBox="0 0 60 64" fill="none" xmlns="http://www.w3.org/2000/svg">
<path d="M7.12303 17.7847C7.12303 9.92544 14.4239 4.05638 29.1207 4.05638C42.8589 4.05638 51.2072 11.6557 53.207 18.7354H57.9049C54.5148 5.69794 43.9064 0 29.3873 0C13.389 0 2.17115 5.9578 2.17115 17.7847C2.17115 43.6884 55.0354 24.3446 55.0354 45.1525C55.0354 53.785 46.4268 59.1406 31.9077 59.1406C15.8205 59.1406 6.60249 51.0215 4.78046 43.4285H0C3.2187 56.2061 15.0396 63.1146 31.5649 63.1146C48.0901 63.1146 60 57.2456 60 45.1588C60 18.8241 7.13574 39.2898 7.13574 17.791" fill="#EDC188"/>
</svg>
