<svg width="60" height="64" viewBox="0 0 60 64" fill="none" xmlns="http://www.w3.org/2000/svg">
<path d="M7.12304 17.7847C7.12304 9.92545 14.4239 4.05638 29.1207 4.05638C42.859 4.05638 51.2073 11.6557 53.2071 18.7354H57.9051C54.5149 5.69795 43.9065 0 29.3874 0C13.3891 0 2.17123 5.95781 2.17123 17.7847C2.17123 43.6884 55.0355 24.3446 55.0355 45.1525C55.0355 53.785 46.4269 59.1407 31.9078 59.1407C15.8206 59.1407 6.6025 51.0216 4.78047 43.4286H0C3.21871 56.2062 15.0397 63.1147 31.5649 63.1147C48.0902 63.1147 60 57.2456 60 45.1589C60 18.8241 7.13575 39.2898 7.13575 17.791" fill="#EDC188"/>
</svg>
