<?xml version="1.0" encoding="UTF-8"?>
<svg id="Camada_1" data-name="Camada 1" xmlns="http://www.w3.org/2000/svg" viewBox="0 0 1070.43 594.8">
  <defs>
    <style>
      .cls-1 {
        fill: #edc188;
      }
    </style>
  </defs>
  <path class="cls-1" d="M342.6,555.82h-110.17c-194.41,0-189.53-248.86-20.5-263.08-.04,2.29-.04,4.65-.04,6.98,0,120.71,50.72,206.19,130.71,256.1M1070.43,594.06c-6.43-37.63-22.94-103.12-70.6-169.11-30.89-42.78-64.83-71.81-90.64-90.44C1089.8,290.45,1071.98,3.03,860.05,1.29h-146.44c-54.52,0-112.26-.42-166.74-.93-46.69-.42-89.2-2.05-135.09,8.22-40.96,9.15-79.29,29.76-110.48,57.78-31.39,28.13-55.22,64.05-69.29,103.78-2.44,6.86-20.62,81.72-17.79,81.8-2.59-.08-5.11-.12-7.71-.19-9.84-3.14-91.14-30.77-121.21-115.36-22.71-64.02-1.78-120.9,4.11-135.01-29.88-.19-59.56.08-89.4-.12,6.43,37.66,22.9,103.93,70.57,169.88,30.88,42.78,64.79,71.81,90.6,90.44C-19.38,305.68-1.62,593.06,210.34,594.8h299.9v-25.34c-23.87-2.52-46.27-7.13-67.12-13.64-116.49-36.23-183.84-130.86-183.84-255.29,0-2.83,0-5.62.08-8.41.23-13.56,1.12-26.62,2.52-39.18,8.99-78.74,41.15-137.49,95.33-174.53,38.79-26.58,88.93-42.04,149.89-45.73,3.68-.23,7.48-.43,11.24-.54,5.97-.19,12.01-.31,18.21-.31,5.27,0,10.39.04,15.46.23,26.58.74,50.77,3.49,72.85,8.26,14.61,3.1,28.25,7.05,41.04,11.82,36.92,13.76,60.92,33.64,67.79,39.4,48.68,40.82,73.13,95.25,59.18,159.32,16.93.11,33.86.22,50.79.33,4.59.03-2.1-61.13-3.4-67.46-6.13-29.84-18.21-59.21-36.17-83.92-23.2-31.9-50.26-50.11-66.84-59.48h100.75c192.94,0,189.53,245.22,24.1,262.65h-353.33v11.28c0,25.73.08,51.62.08,77.35,4.07-2.75,8.8-5.85,14.03-9.15,3.49-2.17,7.25-4.38,11.28-6.66,9.81-5.66,21-11.59,33.67-17.36,29.1-13.37,65.61-25.92,108.78-32.32,1.97-.31,4.03-.62,6.05-.85,42.35-5.62,80.29-3.76,111.6.85,8.29,1.24,16.16,2.67,23.48,4.15,12.67,2.72,23.75,5.66,33.25,8.49,32.9,13.56,109.59,52.01,134.12,121.02,22.71,63.98,2.09,120.13-3.72,134.23,29.84.19,59.17-.12,89.05.08"/>
</svg>